<?xml version="1.0" encoding="UTF-8"?>
<svg width="180" height="40" viewBox="0 0 180 40" xmlns="http://www.w3.org/2000/svg">
  <defs>
    <linearGradient id="logoGradient" x1="0%" y1="0%" x2="100%" y2="100%">
      <stop offset="0%" stop-color="#00c8ff" />
      <stop offset="100%" stop-color="#0077ff" />
    </linearGradient>
    <filter id="glow" x="-20%" y="-20%" width="140%" height="140%">
      <feGaussianBlur stdDeviation="2" result="blur" />
      <feComposite in="SourceGraphic" in2="blur" operator="over" />
    </filter>
  </defs>
  <g filter="url(#glow)">
    <path fill="url(#logoGradient)" d="M43.5,27.8V12.2h3.2l7.1,10.7V12.2h3.1v15.6h-3.2l-7.1-10.7v10.7H43.5z"/>
    <path fill="url(#logoGradient)" d="M60.3,27.8V12.2h10.3v2.6h-7.1v3.9h6.1v2.6h-6.1v3.9h7.1v2.6H60.3z"/>
    <path fill="url(#logoGradient)" d="M73.2,27.8V12.2h3.6l3.7,9.3l3.7-9.3h3.6v15.6h-3.1V17.6l-3.2,8.1h-2.1l-3.2-8.1v10.2H73.2z"/>
    <path fill="url(#logoGradient)" d="M90.5,27.8V12.2h10.3v2.6h-7.1v3.9h6.1v2.6h-6.1v3.9h7.1v2.6H90.5z"/>
    <path fill="url(#logoGradient)" d="M103.3,27.8V12.2h3.2v13h6.9v2.6H103.3z"/>
    <path fill="url(#logoGradient)" d="M115.1,27.8V12.2h5.4c1.9,0,3.3,0.5,4.2,1.4c0.9,0.9,1.4,2.2,1.4,3.8c0,1.6-0.5,2.9-1.4,3.8c-0.9,0.9-2.3,1.4-4.2,1.4h-2.2v5.2H115.1z M118.2,20h2.2c0.8,0,1.4-0.2,1.8-0.7c0.4-0.5,0.6-1.1,0.6-1.9c0-0.8-0.2-1.4-0.6-1.9c-0.4-0.5-1-0.7-1.8-0.7h-2.2V20z"/>
    <path fill="url(#logoGradient)" d="M128.4,27.8V12.2h5.4c1.9,0,3.3,0.5,4.2,1.4c0.9,0.9,1.4,2.2,1.4,3.8c0,1.1-0.2,2-0.7,2.8c-0.5,0.8-1.1,1.3-1.9,1.7l3.3,5.9h-3.7l-2.8-5.2h-2.1v5.2H128.4z M131.5,20h2.2c0.8,0,1.4-0.2,1.8-0.7c0.4-0.5,0.6-1.1,0.6-1.9c0-0.8-0.2-1.4-0.6-1.9c-0.4-0.5-1-0.7-1.8-0.7h-2.2V20z"/>
    <path fill="url(#logoGradient)" d="M142.4,27.8V12.2h10.3v2.6h-7.1v3.9h6.1v2.6h-6.1v3.9h7.1v2.6H142.4z"/>
  </g>
  <g transform="translate(20, 20)">
    <circle fill="url(#logoGradient)" cx="0" cy="0" r="17" filter="url(#glow)" />
    <circle fill="#0A1523" cx="0" cy="0" r="14" />
    <path fill="url(#logoGradient)" d="M-5.5,-5.5 L5.5,5.5 M-5.5,5.5 L5.5,-5.5" stroke="url(#logoGradient)" stroke-width="2.5" stroke-linecap="round" />
    <circle fill="url(#logoGradient)" cx="0" cy="0" r="2.5" />
  </g>
</svg> 